<svg width="739" height="512" viewBox="0 0 739 512" fill="none" xmlns="http://www.w3.org/2000/svg">
<path fill-rule="evenodd" clip-rule="evenodd" d="M32.7142 340C32.2448 344.761 32 349.457 32 354.075C32 442.445 87.64 498.075 176 498.075C264.36 498.075 320 442.445 320 354.075C320 349.457 319.755 344.761 319.286 340H32.7142ZM186.475 444.741C188.183 445.622 190.078 446.079 192 446.075C214.271 446.051 235.623 437.194 251.371 421.446C267.119 405.698 275.976 384.346 276 362.075C276.004 360.153 275.547 358.258 274.666 356.55C273.785 354.842 272.507 353.37 270.939 352.258C269.371 351.147 267.559 350.429 265.655 350.163C263.752 349.898 261.812 350.094 260 350.735C257.636 351.553 255.59 353.097 254.153 355.145C252.717 357.194 251.963 359.643 252 362.145C251.966 378.029 245.641 393.252 234.409 404.484C223.177 415.716 207.954 422.041 192.07 422.075C189.568 422.038 187.119 422.792 185.07 424.228C183.022 425.665 181.478 427.711 180.66 430.075C180.019 431.887 179.823 433.827 180.088 435.73C180.353 437.634 181.072 439.446 182.183 441.014C183.295 442.582 184.766 443.86 186.475 444.741Z" fill="black"/>
<path d="M304 341.075C304 429.445 248.37 485.075 160 485.075C71.63 485.075 16 429.445 16 341.075C16 246.245 119.23 118.225 150.89 81.1951C152.017 79.8794 153.415 78.8233 154.988 78.0991C156.561 77.375 158.273 77 160.005 77C161.737 77 163.449 77.375 165.022 78.0991C166.595 78.8233 167.993 79.8794 169.12 81.1951C200.77 118.225 304 246.245 304 341.075Z" stroke="black" stroke-width="32" stroke-miterlimit="10"/>
<line x1="25.8781" y1="311.033" x2="293.878" y2="309.943" stroke="black" stroke-width="60"/>
<line x1="41" y1="261" x2="294" y2="261" stroke="black" stroke-width="40"/>
<line x1="57.4499" y1="210.003" x2="257.45" y2="213.003" stroke="black" stroke-width="60"/>
<line x1="91.2205" y1="178.002" x2="227.221" y2="181.002" stroke="black" stroke-width="20"/>
<line x1="105" y1="158" x2="218" y2="158" stroke="black" stroke-width="60"/>
<line x1="135" y1="114" x2="188" y2="114" stroke="black" stroke-width="60"/>
</svg>
