<svg width="723" height="512" viewBox="0 0 723 512" fill="none" xmlns="http://www.w3.org/2000/svg">
<rect width="723" height="512" fill="#1E1E1E"/>
<path fill-rule="evenodd" clip-rule="evenodd" d="M16.7142 340C16.2448 344.761 16 349.457 16 354.075C16 442.445 71.64 498.075 160 498.075C248.36 498.075 304 442.445 304 354.075C304 349.457 303.755 344.761 303.286 340H16.7142ZM170.475 444.741C172.183 445.622 174.078 446.079 176 446.075C198.271 446.051 219.623 437.194 235.371 421.446C251.119 405.698 259.976 384.346 260 362.075C260.004 360.153 259.547 358.258 258.666 356.55C257.785 354.842 256.507 353.37 254.939 352.258C253.371 351.147 251.559 350.429 249.655 350.163C247.752 349.898 245.812 350.094 244 350.735C241.636 351.553 239.59 353.097 238.153 355.145C236.717 357.194 235.963 359.643 236 362.145C235.966 378.029 229.641 393.252 218.409 404.484C207.177 415.716 191.954 422.041 176.07 422.075C173.568 422.038 171.119 422.792 169.07 424.228C167.022 425.665 165.478 427.711 164.66 430.075C164.019 431.887 163.823 433.827 164.088 435.73C164.353 437.634 165.072 439.446 166.183 441.014C167.295 442.582 168.766 443.86 170.475 444.741Z" fill="black"/>
<path d="M304 341.075C304 429.445 248.37 485.075 160 485.075C71.63 485.075 16 429.445 16 341.075C16 246.245 119.23 118.225 150.89 81.1951C152.017 79.8794 153.415 78.8233 154.988 78.0991C156.561 77.375 158.273 77 160.005 77C161.737 77 163.449 77.375 165.022 78.0991C166.595 78.8233 167.993 79.8794 169.12 81.1951C200.77 118.225 304 246.245 304 341.075Z" stroke="black" stroke-width="32" stroke-miterlimit="10"/>
<line x1="31.0973" y1="315" x2="288.097" y2="316" stroke="black" stroke-width="50"/>
<line x1="31.0095" y1="278" x2="288.009" y2="278.162" stroke="black" stroke-width="30"/>
<line x1="45.0658" y1="250" x2="274.066" y2="251.005" stroke="black" stroke-width="30"/>
<line x1="64.9159" y1="205.012" x2="256.915" y2="210.038" stroke="black" stroke-width="70"/>
<line x1="98" y1="154" x2="219" y2="154" stroke="black" stroke-width="40"/>
<line x1="131.299" y1="118.012" x2="188.299" y2="116.012" stroke="black" stroke-width="40"/>
</svg>
